# xmcd CD database file
#
# Track frame offsets:
#	150
#	22165
#	46597
#
# Disc length: 912 seconds
#
# Revision: 0
# Processed by: cddbd v1.5.1PL0 Copyright (c) Steve Scherf et al.
# Submitted via: CDex 1.51
#
DISCID=1b038e03
DTITLE=Be-B - 世界で一番悲しい夜を越えて
DYEAR=1994
DGENRE=JPop
TTITLE0=世界で一番悲しい夜を越えて
TTITLE1=Jumping
TTITLE2=世界で一番悲しい夜を越えて(karaoke)
EXTD=YEAR: 1994
EXTT0=
EXTT1=
EXTT2=
PLAYORDER=
